<svg
                xmlns="http://www.w3.org/2000/svg"
                width="30"
                height="30"
                viewBox="0 0 39 39"
                fill="none"
              >
                <mask
                  id="mask0_91_324"
                  style="mask-type: alpha"
                  maskUnits="userSpaceOnUse"
                  x="0"
                  y="0"
                  width="39"
                  height="39"
                >
                  <rect width="39" height="39" fill="#D9D9D9" />
                </mask>
                <g mask="url(#mask0_91_324)">
                  <path
                    d="M17.875 29.25C14.7062 29.25 12.0182 28.1464 9.81094 25.9391C7.60365 23.7318 6.5 21.0437 6.5 17.875V8.125C6.5 7.23125 6.81823 6.46615 7.45469 5.82969C8.09115 5.19323 8.85625 4.875 9.75 4.875H30.0625C31.6333 4.875 32.974 5.43021 34.0844 6.54062C35.1948 7.65104 35.75 8.99167 35.75 10.5625C35.75 12.1333 35.1948 13.474 34.0844 14.5844C32.974 15.6948 31.6333 16.25 30.0625 16.25H29.25V17.875C29.25 21.0437 28.1464 23.7318 25.9391 25.9391C23.7318 28.1464 21.0437 29.25 17.875 29.25ZM9.75 13H26V8.125H9.75V13ZM17.875 26C20.1229 26 22.0391 25.2078 23.6234 23.6234C25.2078 22.0391 26 20.1229 26 17.875V16.25H9.75V17.875C9.75 20.1229 10.5422 22.0391 12.1266 23.6234C13.7109 25.2078 15.6271 26 17.875 26ZM29.25 13H30.0625C30.7396 13 31.3151 12.763 31.7891 12.2891C32.263 11.8151 32.5 11.2396 32.5 10.5625C32.5 9.88542 32.263 9.3099 31.7891 8.83594C31.3151 8.36198 30.7396 8.125 30.0625 8.125H29.25V13ZM6.5 34.125V30.875H32.5V34.125H6.5Z"
                    fill="#DF862E"
                  />
                </g>
              </svg>