 <svg
                xmlns="http://www.w3.org/2000/svg"
                width="24"
                height="24"
                viewBox="0 0 38 38"
                fill="none"
              >
                <mask
                  id="mask0_91_423"
                  style="mask-type: alpha"
                  maskUnits="userSpaceOnUse"
                  x="0"
                  y="0"
                  width="38"
                  height="38"
                >
                  <rect width="38" height="38" fill="#D9D9D9" />
                </mask>
                <g mask="url(#mask0_91_423)">
                  <path
                    d="M11.0833 34.8334C10.2124 34.8334 9.46693 34.5233 8.84679 33.9032C8.22666 33.2831 7.91659 32.5376 7.91659 31.6667C7.91659 30.7959 8.22666 30.0504 8.84679 29.4303C9.46693 28.8101 10.2124 28.5001 11.0833 28.5001C11.9541 28.5001 12.6996 28.8101 13.3197 29.4303C13.9398 30.0504 14.2499 30.7959 14.2499 31.6667C14.2499 32.5376 13.9398 33.2831 13.3197 33.9032C12.6996 34.5233 11.9541 34.8334 11.0833 34.8334ZM26.9166 34.8334C26.0458 34.8334 25.3003 34.5233 24.6801 33.9032C24.06 33.2831 23.7499 32.5376 23.7499 31.6667C23.7499 30.7959 24.06 30.0504 24.6801 29.4303C25.3003 28.8101 26.0458 28.5001 26.9166 28.5001C27.7874 28.5001 28.5329 28.8101 29.153 29.4303C29.7732 30.0504 30.0833 30.7959 30.0833 31.6667C30.0833 32.5376 29.7732 33.2831 29.153 33.9032C28.5329 34.5233 27.7874 34.8334 26.9166 34.8334ZM9.73742 9.50008L13.5374 17.4167H24.6208L28.9749 9.50008H9.73742ZM8.23325 6.33341H31.5874C32.1944 6.33341 32.6562 6.6039 32.9728 7.14487C33.2895 7.68584 33.3027 8.23341 33.0124 8.78758L27.3916 18.9209C27.1013 19.4487 26.7121 19.8577 26.2239 20.148C25.7357 20.4383 25.2013 20.5834 24.6208 20.5834H12.8249L11.0833 23.7501H30.0833V26.9167H11.0833C9.89575 26.9167 8.99853 26.3956 8.39159 25.3532C7.78464 24.3108 7.75825 23.2751 8.31242 22.2459L10.4499 18.3667L4.74992 6.33341H1.58325V3.16675H6.72909L8.23325 6.33341Z"
                    fill="#DF862E"
                  />
                </g>
              </svg>