<svg
                xmlns="http://www.w3.org/2000/svg"
                width="34"
                height="34"
                viewBox="0 0 40 40"
                fill="none"
              >
                <mask
                  id="mask0_91_318"
                  style="mask-type: alpha"
                  maskUnits="userSpaceOnUse"
                  x="0"
                  y="0"
                  width="34"
                  height="34"
                >
                  <rect width="34" height="34" fill="#D9D9D9" />
                </mask>
                <g mask="url(#mask0_91_318)">
                  <path
                    d="M18.8769 18.4166C18.1214 17.3541 17.1238 16.6163 15.8842 16.2031C14.6446 15.7899 13.3637 15.5833 12.0415 15.5833C10.7193 15.5833 9.43838 15.7899 8.1988 16.2031C6.95921 16.6163 5.96164 17.3541 5.20609 18.4166H18.8769ZM1.4165 21.25C1.4165 18.6763 2.49081 16.6163 4.63942 15.0698C6.78803 13.5232 9.25539 12.75 12.0415 12.75C14.8276 12.75 17.295 13.5232 19.4436 15.0698C21.5922 16.6163 22.6665 18.6763 22.6665 21.25H1.4165ZM1.4165 26.9166V24.0833H22.6665V26.9166H1.4165ZM25.4998 32.5833V29.75H27.4832L29.4665 9.91663H15.9373L15.5832 7.08329H22.6665V1.41663H25.4998V7.08329H32.5832L30.2457 30.5291C30.1748 31.1194 29.9151 31.6093 29.4665 31.9989C29.0179 32.3885 28.4984 32.5833 27.9082 32.5833H25.4998ZM2.83317 32.5833C2.43178 32.5833 2.09532 32.4475 1.8238 32.176C1.55227 31.9045 1.4165 31.568 1.4165 31.1666V29.75H22.6665V31.1666C22.6665 31.568 22.5307 31.9045 22.2592 32.176C21.9877 32.4475 21.6512 32.5833 21.2498 32.5833H2.83317Z"
                    fill="#DF862E"
                  />
                </g>
              </svg>