 <svg
                  xmlns="http://www.w3.org/2000/svg"
                  width="29"
                  height="29"
                  viewBox="0 0 29 29"
                  fill="none"
                >
                  <path
                    d="M11.6 13.05C12.0108 13.05 12.3552 12.911 12.6331 12.6331C12.911 12.3552 13.05 12.0108 13.05 11.6C13.05 11.1892 12.911 10.8448 12.6331 10.5669C12.3552 10.289 12.0108 10.15 11.6 10.15C11.1892 10.15 10.8448 10.289 10.5669 10.5669C10.289 10.8448 10.15 11.1892 10.15 11.6C10.15 12.0108 10.289 12.3552 10.5669 12.6331C10.8448 12.911 11.1892 13.05 11.6 13.05ZM11.6 18.85C12.0108 18.85 12.3552 18.711 12.6331 18.4331C12.911 18.1552 13.05 17.8108 13.05 17.4C13.05 16.9892 12.911 16.6448 12.6331 16.3669C12.3552 16.089 12.0108 15.95 11.6 15.95C11.1892 15.95 10.8448 16.089 10.5669 16.3669C10.289 16.6448 10.15 16.9892 10.15 17.4C10.15 17.8108 10.289 18.1552 10.5669 18.4331C10.8448 18.711 11.1892 18.85 11.6 18.85ZM7.25 12.325C7.44333 12.325 7.6125 12.2525 7.7575 12.1075C7.9025 11.9625 7.975 11.7933 7.975 11.6C7.975 11.4067 7.9025 11.2375 7.7575 11.0925C7.6125 10.9475 7.44333 10.875 7.25 10.875C7.05667 10.875 6.8875 10.9475 6.7425 11.0925C6.5975 11.2375 6.525 11.4067 6.525 11.6C6.525 11.7933 6.5975 11.9625 6.7425 12.1075C6.8875 12.2525 7.05667 12.325 7.25 12.325ZM11.6 22.475C11.7933 22.475 11.9625 22.4025 12.1075 22.2575C12.2525 22.1125 12.325 21.9433 12.325 21.75C12.325 21.5567 12.2525 21.3875 12.1075 21.2425C11.9625 21.0975 11.7933 21.025 11.6 21.025C11.4067 21.025 11.2375 21.0975 11.0925 21.2425C10.9475 21.3875 10.875 21.5567 10.875 21.75C10.875 21.9433 10.9475 22.1125 11.0925 22.2575C11.2375 22.4025 11.4067 22.475 11.6 22.475ZM7.25 18.125C7.44333 18.125 7.6125 18.0525 7.7575 17.9075C7.9025 17.7625 7.975 17.5933 7.975 17.4C7.975 17.2067 7.9025 17.0375 7.7575 16.8925C7.6125 16.7475 7.44333 16.675 7.25 16.675C7.05667 16.675 6.8875 16.7475 6.7425 16.8925C6.5975 17.0375 6.525 17.2067 6.525 17.4C6.525 17.5933 6.5975 17.7625 6.7425 17.9075C6.8875 18.0525 7.05667 18.125 7.25 18.125ZM11.6 7.975C11.7933 7.975 11.9625 7.9025 12.1075 7.7575C12.2525 7.6125 12.325 7.44333 12.325 7.25C12.325 7.05667 12.2525 6.8875 12.1075 6.7425C11.9625 6.5975 11.7933 6.525 11.6 6.525C11.4067 6.525 11.2375 6.5975 11.0925 6.7425C10.9475 6.8875 10.875 7.05667 10.875 7.25C10.875 7.44333 10.9475 7.6125 11.0925 7.7575C11.2375 7.9025 11.4067 7.975 11.6 7.975ZM17.4 13.05C17.8108 13.05 18.1552 12.911 18.4331 12.6331C18.711 12.3552 18.85 12.0108 18.85 11.6C18.85 11.1892 18.711 10.8448 18.4331 10.5669C18.1552 10.289 17.8108 10.15 17.4 10.15C16.9892 10.15 16.6448 10.289 16.3669 10.5669C16.089 10.8448 15.95 11.1892 15.95 11.6C15.95 12.0108 16.089 12.3552 16.3669 12.6331C16.6448 12.911 16.9892 13.05 17.4 13.05ZM17.4 7.975C17.5933 7.975 17.7625 7.9025 17.9075 7.7575C18.0525 7.6125 18.125 7.44333 18.125 7.25C18.125 7.05667 18.0525 6.8875 17.9075 6.7425C17.7625 6.5975 17.5933 6.525 17.4 6.525C17.2067 6.525 17.0375 6.5975 16.8925 6.7425C16.7475 6.8875 16.675 7.05667 16.675 7.25C16.675 7.44333 16.7475 7.6125 16.8925 7.7575C17.0375 7.9025 17.2067 7.975 17.4 7.975ZM21.75 18.125C21.9433 18.125 22.1125 18.0525 22.2575 17.9075C22.4025 17.7625 22.475 17.5933 22.475 17.4C22.475 17.2067 22.4025 17.0375 22.2575 16.8925C22.1125 16.7475 21.9433 16.675 21.75 16.675C21.5567 16.675 21.3875 16.7475 21.2425 16.8925C21.0975 17.0375 21.025 17.2067 21.025 17.4C21.025 17.5933 21.0975 17.7625 21.2425 17.9075C21.3875 18.0525 21.5567 18.125 21.75 18.125ZM21.75 12.325C21.9433 12.325 22.1125 12.2525 22.2575 12.1075C22.4025 11.9625 22.475 11.7933 22.475 11.6C22.475 11.4067 22.4025 11.2375 22.2575 11.0925C22.1125 10.9475 21.9433 10.875 21.75 10.875C21.5567 10.875 21.3875 10.9475 21.2425 11.0925C21.0975 11.2375 21.025 11.4067 21.025 11.6C21.025 11.7933 21.0975 11.9625 21.2425 12.1075C21.3875 12.2525 21.5567 12.325 21.75 12.325ZM14.5 29C12.4942 29 10.6092 28.6194 8.845 27.8581C7.08083 27.0969 5.54625 26.0638 4.24125 24.7588C2.93625 23.4538 1.90313 21.9192 1.14188 20.155C0.380625 18.3908 0 16.5058 0 14.5C0 12.4942 0.380625 10.6092 1.14188 8.845C1.90313 7.08083 2.93625 5.54625 4.24125 4.24125C5.54625 2.93625 7.08083 1.90313 8.845 1.14188C10.6092 0.380625 12.4942 0 14.5 0C16.5058 0 18.3908 0.380625 20.155 1.14188C21.9192 1.90313 23.4538 2.93625 24.7588 4.24125C26.0638 5.54625 27.0969 7.08083 27.8581 8.845C28.6194 10.6092 29 12.4942 29 14.5C29 16.5058 28.6194 18.3908 27.8581 20.155C27.0969 21.9192 26.0638 23.4538 24.7588 24.7588C23.4538 26.0638 21.9192 27.0969 20.155 27.8581C18.3908 28.6194 16.5058 29 14.5 29ZM14.5 26.1C17.7383 26.1 20.4812 24.9762 22.7288 22.7288C24.9762 20.4812 26.1 17.7383 26.1 14.5C26.1 11.2617 24.9762 8.51875 22.7288 6.27125C20.4812 4.02375 17.7383 2.9 14.5 2.9C11.2617 2.9 8.51875 4.02375 6.27125 6.27125C4.02375 8.51875 2.9 11.2617 2.9 14.5C2.9 17.7383 4.02375 20.4812 6.27125 22.7288C8.51875 24.9762 11.2617 26.1 14.5 26.1ZM17.4 22.475C17.5933 22.475 17.7625 22.4025 17.9075 22.2575C18.0525 22.1125 18.125 21.9433 18.125 21.75C18.125 21.5567 18.0525 21.3875 17.9075 21.2425C17.7625 21.0975 17.5933 21.025 17.4 21.025C17.2067 21.025 17.0375 21.0975 16.8925 21.2425C16.7475 21.3875 16.675 21.5567 16.675 21.75C16.675 21.9433 16.7475 22.1125 16.8925 22.2575C17.0375 22.4025 17.2067 22.475 17.4 22.475ZM17.4 18.85C17.8108 18.85 18.1552 18.711 18.4331 18.4331C18.711 18.1552 18.85 17.8108 18.85 17.4C18.85 16.9892 18.711 16.6448 18.4331 16.3669C18.1552 16.089 17.8108 15.95 17.4 15.95C16.9892 15.95 16.6448 16.089 16.3669 16.3669C16.089 16.6448 15.95 16.9892 15.95 17.4C15.95 17.8108 16.089 18.1552 16.3669 18.4331C16.6448 18.711 16.9892 18.85 17.4 18.85Z"
                    fill="#DF862E"
                  />
                </svg>